<?xml version="1.0" encoding="utf-8" ?>
<svg baseProfile="tiny" height="900px" version="1.2" width="1200px" xmlns="http://www.w3.org/2000/svg" xmlns:ev="http://www.w3.org/2001/xml-events" xmlns:xlink="http://www.w3.org/1999/xlink"><defs /><rect fill="#f5f5f5" height="100%" width="100%" x="0" y="0" /><text fill="#333333" font-family="Arial" font-size="24" font-weight="bold" text-anchor="middle" x="600" y="40">Multimodal Dialogue Podcast Generation Architecture</text><text fill="#333333" font-family="Arial" font-size="16" text-anchor="middle" x="600" y="70">Integration Architecture with Component Evaluation</text><rect fill="#3498DB" fill-opacity="0.2" height="120" rx="5" ry="5" stroke="#3498DB" stroke-width="2" width="200" x="1100" y="380" /><text fill="#333333" font-family="Arial" font-size="16" font-weight="bold" text-anchor="middle" x="1200.0" y="410">Integration Controller</text><text fill="#333333" font-family="Arial" font-size="12" x="1120" y="440">generatePodcast()</text><text fill="#333333" font-family="Arial" font-size="12" x="1120" y="460">generateCustomPodcast()</text><text fill="#333333" font-family="Arial" font-size="12" x="1120" y="480">setComponents()</text><line stroke="#3498DB" stroke-dasharray="5,3" stroke-width="1.5" x1="1100" x2="1050" y1="440" y2="200.0" /><line stroke="#3498DB" stroke-dasharray="5,3" stroke-width="1.5" x1="1100" x2="1050" y1="440" y2="330.0" /><line stroke="#3498DB" stroke-dasharray="5,3" stroke-width="1.5" x1="1100" x2="1050" y1="440" y2="460.0" /><line stroke="#3498DB" stroke-dasharray="5,3" stroke-width="1.5" x1="1100" x2="1050" y1="440" y2="590.0" /><line stroke="#3498DB" stroke-dasharray="5,3" stroke-width="1.5" x1="1100" x2="1050" y1="440" y2="720.0" /><text fill="#333333" font-family="Arial" font-size="18" font-weight="bold" x="150" y="850">Recommended Component Integration</text><text fill="#4285F4" font-family="Arial" font-size="14" x="150" y="880">Content Ingestion Layer:</text><text fill="#FF5722" font-family="Arial" font-size="14" font-weight="bold" x="400" y="880">Custom Implementation</text><rect fill="none" height="70" rx="5" ry="5" stroke="#FF5722" stroke-dasharray="5,3" stroke-width="3" width="170" x="935" y="155" /><text fill="#EA4335" font-family="Arial" font-size="14" x="150" y="905">Content Understanding Layer:</text><text fill="#FF5722" font-family="Arial" font-size="14" font-weight="bold" x="400" y="905">Google Gemini 1.5</text><rect fill="none" height="70" rx="5" ry="5" stroke="#FF5722" stroke-dasharray="5,3" stroke-width="3" width="170" x="395" y="285" /><text fill="#FBBC05" font-family="Arial" font-size="14" x="150" y="930">Dialogue Generation Layer:</text><text fill="#FF5722" font-family="Arial" font-size="14" font-weight="bold" x="400" y="930">Custom w/ GPT-4o</text><rect fill="none" height="70" rx="5" ry="5" stroke="#FF5722" stroke-dasharray="5,3" stroke-width="3" width="170" x="395" y="415" /><text fill="#34A853" font-family="Arial" font-size="14" x="150" y="955">Voice Synthesis Layer:</text><text fill="#FF5722" font-family="Arial" font-size="14" font-weight="bold" x="400" y="955">ElevenLabs</text><rect fill="none" height="70" rx="5" ry="5" stroke="#FF5722" stroke-dasharray="5,3" stroke-width="3" width="170" x="575" y="545" /><text fill="#8E44AD" font-family="Arial" font-size="14" x="150" y="980">Delivery Layer:</text><text fill="#FF5722" font-family="Arial" font-size="14" font-weight="bold" x="400" y="980">Custom Implementation</text><rect fill="none" height="70" rx="5" ry="5" stroke="#FF5722" stroke-dasharray="5,3" stroke-width="3" width="170" x="395" y="675" /><rect fill="white" height="150" rx="5" ry="5" stroke="#333333" stroke-width="1" width="200" x="1100" y="550" /><text fill="#333333" font-family="Arial" font-size="14" font-weight="bold" x="1110" y="570">Legend</text><rect fill="#4285F4" height="10" stroke="#333333" stroke-width="0.5" width="10" x="1110" y="580" /><text fill="#333333" font-family="Arial" font-size="12" x="1130" y="590">Content Ingestion</text><rect fill="#EA4335" height="10" stroke="#333333" stroke-width="0.5" width="10" x="1110" y="600" /><text fill="#333333" font-family="Arial" font-size="12" x="1130" y="610">Content Understanding</text><rect fill="#FBBC05" height="10" stroke="#333333" stroke-width="0.5" width="10" x="1110" y="620" /><text fill="#333333" font-family="Arial" font-size="12" x="1130" y="630">Dialogue Generation</text><rect fill="#34A853" height="10" stroke="#333333" stroke-width="0.5" width="10" x="1110" y="640" /><text fill="#333333" font-family="Arial" font-size="12" x="1130" y="650">Voice Synthesis</text><rect fill="#8E44AD" height="10" stroke="#333333" stroke-width="0.5" width="10" x="1110" y="660" /><text fill="#333333" font-family="Arial" font-size="12" x="1130" y="670">Delivery</text><rect fill="#FF5722" height="10" stroke="#333333" stroke-width="0.5" width="10" x="1110" y="680" /><text fill="#333333" font-family="Arial" font-size="12" x="1130" y="690">Recommended Component</text><g id="layers"><rect fill="#4285F4" fill-opacity="0.2" height="100" rx="5" ry="5" stroke="#4285F4" stroke-width="2" width="900" x="150" y="150" /><text fill="#333333" font-family="Arial" font-size="16" font-weight="bold" x="170" y="180">Content Ingestion Layer</text><text fill="#E67E22" font-family="Arial" font-size="12" font-style="italic" x="170" y="205">Interface: ContentIngestionService</text><text fill="#333333" font-family="Arial" font-size="12" x="170" y="225">Output: ContentPackage</text><rect fill="#ECF0F1" height="60" rx="3" ry="3" stroke="#4285F4" stroke-width="1.5" width="160" x="400" y="160" /><text fill="#333333" font-family="Arial" font-size="12" text-anchor="middle" x="480.0" y="180">Web Adapter</text><text fill="#4285F4" font-family="Arial" font-size="12" x="450.0" y="200">★</text><text fill="#4285F4" font-family="Arial" font-size="12" x="462.0" y="200">★</text><text fill="#4285F4" font-family="Arial" font-size="12" x="474.0" y="200">★</text><text fill="#4285F4" font-family="Arial" font-size="12" x="486.0" y="200">★</text><text fill="#dddddd" font-family="Arial" font-size="12" x="498.0" y="200">★</text><rect fill="#ECF0F1" height="60" rx="3" ry="3" stroke="#4285F4" stroke-width="1.5" width="160" x="580" y="160" /><text fill="#333333" font-family="Arial" font-size="12" text-anchor="middle" x="660.0" y="180">PDF Adapter</text><text fill="#4285F4" font-family="Arial" font-size="12" x="630.0" y="200">★</text><text fill="#4285F4" font-family="Arial" font-size="12" x="642.0" y="200">★</text><text fill="#4285F4" font-family="Arial" font-size="12" x="654.0" y="200">★</text><text fill="#4285F4" font-family="Arial" font-size="12" x="666.0" y="200">★</text><text fill="#dddddd" font-family="Arial" font-size="12" x="678.0" y="200">★</text><rect fill="#ECF0F1" height="60" rx="3" ry="3" stroke="#4285F4" stroke-width="1.5" width="160" x="760" y="160" /><text fill="#333333" font-family="Arial" font-size="12" text-anchor="middle" x="840.0" y="180">Video Adapter</text><text fill="#4285F4" font-family="Arial" font-size="12" x="810.0" y="200">★</text><text fill="#4285F4" font-family="Arial" font-size="12" x="822.0" y="200">★</text><text fill="#4285F4" font-family="Arial" font-size="12" x="834.0" y="200">★</text><text fill="#dddddd" font-family="Arial" font-size="12" x="846.0" y="200">★</text><text fill="#dddddd" font-family="Arial" font-size="12" x="858.0" y="200">★</text><rect fill="#ECF0F1" height="60" rx="3" ry="3" stroke="#4285F4" stroke-width="1.5" width="160" x="940" y="160" /><text fill="#333333" font-family="Arial" font-size="12" text-anchor="middle" x="1020.0" y="180">Text Adapter</text><text fill="#4285F4" font-family="Arial" font-size="12" x="990.0" y="200">★</text><text fill="#4285F4" font-family="Arial" font-size="12" x="1002.0" y="200">★</text><text fill="#4285F4" font-family="Arial" font-size="12" x="1014.0" y="200">★</text><text fill="#4285F4" font-family="Arial" font-size="12" x="1026.0" y="200">★</text><text fill="#4285F4" font-family="Arial" font-size="12" x="1038.0" y="200">★</text><rect fill="#EA4335" fill-opacity="0.2" height="100" rx="5" ry="5" stroke="#EA4335" stroke-width="2" width="900" x="150" y="280" /><text fill="#333333" font-family="Arial" font-size="16" font-weight="bold" x="170" y="310">Content Understanding Layer</text><text fill="#E67E22" font-family="Arial" font-size="12" font-style="italic" x="170" y="335">Interface: ContentUnderstandingService</text><text fill="#333333" font-family="Arial" font-size="12" x="170" y="355">Output: KnowledgeGraph</text><rect fill="#ECF0F1" height="60" rx="3" ry="3" stroke="#EA4335" stroke-width="1.5" width="160" x="400" y="290" /><text fill="#333333" font-family="Arial" font-size="12" text-anchor="middle" x="480.0" y="310">Topic Extractor</text><text fill="#EA4335" font-family="Arial" font-size="12" x="450.0" y="330">★</text><text fill="#EA4335" font-family="Arial" font-size="12" x="462.0" y="330">★</text><text fill="#EA4335" font-family="Arial" font-size="12" x="474.0" y="330">★</text><text fill="#EA4335" font-family="Arial" font-size="12" x="486.0" y="330">★</text><text fill="#EA4335" font-family="Arial" font-size="12" x="498.0" y="330">★</text><rect fill="#ECF0F1" height="60" rx="3" ry="3" stroke="#EA4335" stroke-width="1.5" width="160" x="580" y="290" /><text fill="#333333" font-family="Arial" font-size="12" text-anchor="middle" x="660.0" y="310">Entity Recognizer</text><text fill="#EA4335" font-family="Arial" font-size="12" x="630.0" y="330">★</text><text fill="#EA4335" font-family="Arial" font-size="12" x="642.0" y="330">★</text><text fill="#EA4335" font-family="Arial" font-size="12" x="654.0" y="330">★</text><text fill="#EA4335" font-family="Arial" font-size="12" x="666.0" y="330">★</text><text fill="#dddddd" font-family="Arial" font-size="12" x="678.0" y="330">★</text><rect fill="#ECF0F1" height="60" rx="3" ry="3" stroke="#EA4335" stroke-width="1.5" width="160" x="760" y="290" /><text fill="#333333" font-family="Arial" font-size="12" text-anchor="middle" x="840.0" y="310">Relationship Mapper</text><text fill="#EA4335" font-family="Arial" font-size="12" x="810.0" y="330">★</text><text fill="#EA4335" font-family="Arial" font-size="12" x="822.0" y="330">★</text><text fill="#EA4335" font-family="Arial" font-size="12" x="834.0" y="330">★</text><text fill="#EA4335" font-family="Arial" font-size="12" x="846.0" y="330">★</text><text fill="#dddddd" font-family="Arial" font-size="12" x="858.0" y="330">★</text><rect fill="#ECF0F1" height="60" rx="3" ry="3" stroke="#EA4335" stroke-width="1.5" width="160" x="940" y="290" /><text fill="#333333" font-family="Arial" font-size="12" text-anchor="middle" x="1020.0" y="310">Knowledge Graph Builder</text><text fill="#EA4335" font-family="Arial" font-size="12" x="990.0" y="330">★</text><text fill="#EA4335" font-family="Arial" font-size="12" x="1002.0" y="330">★</text><text fill="#EA4335" font-family="Arial" font-size="12" x="1014.0" y="330">★</text><text fill="#EA4335" font-family="Arial" font-size="12" x="1026.0" y="330">★</text><text fill="#EA4335" font-family="Arial" font-size="12" x="1038.0" y="330">★</text><rect fill="#FBBC05" fill-opacity="0.2" height="100" rx="5" ry="5" stroke="#FBBC05" stroke-width="2" width="900" x="150" y="410" /><text fill="#333333" font-family="Arial" font-size="16" font-weight="bold" x="170" y="440">Dialogue Generation Layer</text><text fill="#E67E22" font-family="Arial" font-size="12" font-style="italic" x="170" y="465">Interface: DialogueGenerationService</text><text fill="#333333" font-family="Arial" font-size="12" x="170" y="485">Output: DialogueScript</text><rect fill="#ECF0F1" height="60" rx="3" ry="3" stroke="#FBBC05" stroke-width="1.5" width="160" x="400" y="420" /><text fill="#333333" font-family="Arial" font-size="12" text-anchor="middle" x="480.0" y="440">Script Generator</text><text fill="#FBBC05" font-family="Arial" font-size="12" x="450.0" y="460">★</text><text fill="#FBBC05" font-family="Arial" font-size="12" x="462.0" y="460">★</text><text fill="#FBBC05" font-family="Arial" font-size="12" x="474.0" y="460">★</text><text fill="#FBBC05" font-family="Arial" font-size="12" x="486.0" y="460">★</text><text fill="#FBBC05" font-family="Arial" font-size="12" x="498.0" y="460">★</text><rect fill="#ECF0F1" height="60" rx="3" ry="3" stroke="#FBBC05" stroke-width="1.5" width="160" x="580" y="420" /><text fill="#333333" font-family="Arial" font-size="12" text-anchor="middle" x="660.0" y="440">Character Manager</text><text fill="#FBBC05" font-family="Arial" font-size="12" x="630.0" y="460">★</text><text fill="#FBBC05" font-family="Arial" font-size="12" x="642.0" y="460">★</text><text fill="#FBBC05" font-family="Arial" font-size="12" x="654.0" y="460">★</text><text fill="#FBBC05" font-family="Arial" font-size="12" x="666.0" y="460">★</text><text fill="#dddddd" font-family="Arial" font-size="12" x="678.0" y="460">★</text><rect fill="#ECF0F1" height="60" rx="3" ry="3" stroke="#FBBC05" stroke-width="1.5" width="160" x="760" y="420" /><text fill="#333333" font-family="Arial" font-size="12" text-anchor="middle" x="840.0" y="440">Conversation Planner</text><text fill="#FBBC05" font-family="Arial" font-size="12" x="810.0" y="460">★</text><text fill="#FBBC05" font-family="Arial" font-size="12" x="822.0" y="460">★</text><text fill="#FBBC05" font-family="Arial" font-size="12" x="834.0" y="460">★</text><text fill="#FBBC05" font-family="Arial" font-size="12" x="846.0" y="460">★</text><text fill="#dddddd" font-family="Arial" font-size="12" x="858.0" y="460">★</text><rect fill="#ECF0F1" height="60" rx="3" ry="3" stroke="#FBBC05" stroke-width="1.5" width="160" x="940" y="420" /><text fill="#333333" font-family="Arial" font-size="12" text-anchor="middle" x="1020.0" y="440">Emotion Mapper</text><text fill="#FBBC05" font-family="Arial" font-size="12" x="990.0" y="460">★</text><text fill="#FBBC05" font-family="Arial" font-size="12" x="1002.0" y="460">★</text><text fill="#FBBC05" font-family="Arial" font-size="12" x="1014.0" y="460">★</text><text fill="#dddddd" font-family="Arial" font-size="12" x="1026.0" y="460">★</text><text fill="#dddddd" font-family="Arial" font-size="12" x="1038.0" y="460">★</text><rect fill="#34A853" fill-opacity="0.2" height="100" rx="5" ry="5" stroke="#34A853" stroke-width="2" width="900" x="150" y="540" /><text fill="#333333" font-family="Arial" font-size="16" font-weight="bold" x="170" y="570">Voice Synthesis Layer</text><text fill="#E67E22" font-family="Arial" font-size="12" font-style="italic" x="170" y="595">Interface: VoiceSynthesisService</text><text fill="#333333" font-family="Arial" font-size="12" x="170" y="615">Output: AudioPackage</text><rect fill="#ECF0F1" height="60" rx="3" ry="3" stroke="#34A853" stroke-width="1.5" width="160" x="400" y="550" /><text fill="#333333" font-family="Arial" font-size="12" text-anchor="middle" x="480.0" y="570">Voice Selector</text><text fill="#34A853" font-family="Arial" font-size="12" x="450.0" y="590">★</text><text fill="#34A853" font-family="Arial" font-size="12" x="462.0" y="590">★</text><text fill="#34A853" font-family="Arial" font-size="12" x="474.0" y="590">★</text><text fill="#34A853" font-family="Arial" font-size="12" x="486.0" y="590">★</text><text fill="#dddddd" font-family="Arial" font-size="12" x="498.0" y="590">★</text><rect fill="#ECF0F1" height="60" rx="3" ry="3" stroke="#34A853" stroke-width="1.5" width="160" x="580" y="550" /><text fill="#333333" font-family="Arial" font-size="12" text-anchor="middle" x="660.0" y="570">Speech Synthesizer</text><text fill="#34A853" font-family="Arial" font-size="12" x="630.0" y="590">★</text><text fill="#34A853" font-family="Arial" font-size="12" x="642.0" y="590">★</text><text fill="#34A853" font-family="Arial" font-size="12" x="654.0" y="590">★</text><text fill="#34A853" font-family="Arial" font-size="12" x="666.0" y="590">★</text><text fill="#34A853" font-family="Arial" font-size="12" x="678.0" y="590">★</text><rect fill="#ECF0F1" height="60" rx="3" ry="3" stroke="#34A853" stroke-width="1.5" width="160" x="760" y="550" /><text fill="#333333" font-family="Arial" font-size="12" text-anchor="middle" x="840.0" y="570">Audio Processor</text><text fill="#34A853" font-family="Arial" font-size="12" x="810.0" y="590">★</text><text fill="#34A853" font-family="Arial" font-size="12" x="822.0" y="590">★</text><text fill="#34A853" font-family="Arial" font-size="12" x="834.0" y="590">★</text><text fill="#34A853" font-family="Arial" font-size="12" x="846.0" y="590">★</text><text fill="#dddddd" font-family="Arial" font-size="12" x="858.0" y="590">★</text><rect fill="#ECF0F1" height="60" rx="3" ry="3" stroke="#34A853" stroke-width="1.5" width="160" x="940" y="550" /><text fill="#333333" font-family="Arial" font-size="12" text-anchor="middle" x="1020.0" y="570">Segment Assembler</text><text fill="#34A853" font-family="Arial" font-size="12" x="990.0" y="590">★</text><text fill="#34A853" font-family="Arial" font-size="12" x="1002.0" y="590">★</text><text fill="#34A853" font-family="Arial" font-size="12" x="1014.0" y="590">★</text><text fill="#34A853" font-family="Arial" font-size="12" x="1026.0" y="590">★</text><text fill="#dddddd" font-family="Arial" font-size="12" x="1038.0" y="590">★</text><rect fill="#8E44AD" fill-opacity="0.2" height="100" rx="5" ry="5" stroke="#8E44AD" stroke-width="2" width="900" x="150" y="670" /><text fill="#333333" font-family="Arial" font-size="16" font-weight="bold" x="170" y="700">Delivery Layer</text><text fill="#E67E22" font-family="Arial" font-size="12" font-style="italic" x="170" y="725">Interface: DeliveryService</text><text fill="#333333" font-family="Arial" font-size="12" x="170" y="745">Output: PodcastPackage</text><rect fill="#ECF0F1" height="60" rx="3" ry="3" stroke="#8E44AD" stroke-width="1.5" width="160" x="400" y="680" /><text fill="#333333" font-family="Arial" font-size="12" text-anchor="middle" x="480.0" y="700">Format Converter</text><text fill="#8E44AD" font-family="Arial" font-size="12" x="450.0" y="720">★</text><text fill="#8E44AD" font-family="Arial" font-size="12" x="462.0" y="720">★</text><text fill="#8E44AD" font-family="Arial" font-size="12" x="474.0" y="720">★</text><text fill="#8E44AD" font-family="Arial" font-size="12" x="486.0" y="720">★</text><text fill="#dddddd" font-family="Arial" font-size="12" x="498.0" y="720">★</text><rect fill="#ECF0F1" height="60" rx="3" ry="3" stroke="#8E44AD" stroke-width="1.5" width="160" x="580" y="680" /><text fill="#333333" font-family="Arial" font-size="12" text-anchor="middle" x="660.0" y="700">Metadata Manager</text><text fill="#8E44AD" font-family="Arial" font-size="12" x="630.0" y="720">★</text><text fill="#8E44AD" font-family="Arial" font-size="12" x="642.0" y="720">★</text><text fill="#8E44AD" font-family="Arial" font-size="12" x="654.0" y="720">★</text><text fill="#8E44AD" font-family="Arial" font-size="12" x="666.0" y="720">★</text><text fill="#dddddd" font-family="Arial" font-size="12" x="678.0" y="720">★</text><rect fill="#ECF0F1" height="60" rx="3" ry="3" stroke="#8E44AD" stroke-width="1.5" width="160" x="760" y="680" /><text fill="#333333" font-family="Arial" font-size="12" text-anchor="middle" x="840.0" y="700">Distribution Service</text><text fill="#8E44AD" font-family="Arial" font-size="12" x="810.0" y="720">★</text><text fill="#8E44AD" font-family="Arial" font-size="12" x="822.0" y="720">★</text><text fill="#8E44AD" font-family="Arial" font-size="12" x="834.0" y="720">★</text><text fill="#dddddd" font-family="Arial" font-size="12" x="846.0" y="720">★</text><text fill="#dddddd" font-family="Arial" font-size="12" x="858.0" y="720">★</text><rect fill="#ECF0F1" height="60" rx="3" ry="3" stroke="#8E44AD" stroke-width="1.5" width="160" x="940" y="680" /><text fill="#333333" font-family="Arial" font-size="12" text-anchor="middle" x="1020.0" y="700">Analytics Collector</text><text fill="#8E44AD" font-family="Arial" font-size="12" x="990.0" y="720">★</text><text fill="#8E44AD" font-family="Arial" font-size="12" x="1002.0" y="720">★</text><text fill="#8E44AD" font-family="Arial" font-size="12" x="1014.0" y="720">★</text><text fill="#dddddd" font-family="Arial" font-size="12" x="1026.0" y="720">★</text><text fill="#dddddd" font-family="Arial" font-size="12" x="1038.0" y="720">★</text><line stroke="#2C3E50" stroke-width="2" x1="600.0" x2="600.0" y1="250" y2="270" /><polygon fill="#2C3E50" points="600.0,280 594.0,270 606.0,270" /><text fill="#2C3E50" font-family="Arial" font-size="12" font-weight="bold" x="610.0" y="265.0">ContentPackage</text><line stroke="#2C3E50" stroke-width="2" x1="600.0" x2="600.0" y1="380" y2="400" /><polygon fill="#2C3E50" points="600.0,410 594.0,400 606.0,400" /><text fill="#2C3E50" font-family="Arial" font-size="12" font-weight="bold" x="610.0" y="395.0">KnowledgeGraph</text><line stroke="#2C3E50" stroke-width="2" x1="600.0" x2="600.0" y1="510" y2="530" /><polygon fill="#2C3E50" points="600.0,540 594.0,530 606.0,530" /><text fill="#2C3E50" font-family="Arial" font-size="12" font-weight="bold" x="610.0" y="525.0">DialogueScript</text><line stroke="#2C3E50" stroke-width="2" x1="600.0" x2="600.0" y1="640" y2="660" /><polygon fill="#2C3E50" points="600.0,670 594.0,660 606.0,660" /><text fill="#2C3E50" font-family="Arial" font-size="12" font-weight="bold" x="610.0" y="655.0">AudioPackage</text></g></svg>